<svg width="24" height="24" viewBox="0 0 24 24" fill="none" xmlns="http://www.w3.org/2000/svg">
<path fill-rule="evenodd" clip-rule="evenodd" d="M18.0625 5.24999C18.5312 5.24999 18.9297 5.41406 19.2578 5.74218C19.5859 6.07031 19.75 6.46874 19.75 6.93749V19.3125C19.75 19.7812 19.5859 20.1796 19.2578 20.5078C18.9297 20.8359 18.5312 21 18.0625 21H5.6875C5.21875 21 4.82031 20.8359 4.49219 20.5078C4.16406 20.1796 4 19.7812 4 19.3125V6.93749C4 6.46874 4.16406 6.07031 4.49219 5.74218C4.82031 5.41406 5.21875 5.24999 5.6875 5.24999H7.37499V3.42187C7.37499 3.30469 7.41601 3.20508 7.49804 3.12305C7.58007 3.04102 7.67968 3 7.79687 3H9.20311C9.3203 3 9.41991 3.04102 9.50194 3.12305C9.58397 3.20508 9.62499 3.30469 9.62499 3.42187V5.24999H14.125V3.42187C14.125 3.30469 14.166 3.20508 14.248 3.12305C14.3301 3.04102 14.4297 3 14.5469 3H15.9531C16.0703 3 16.1699 3.04102 16.2519 3.12305C16.334 3.20508 16.375 3.30469 16.375 3.42187V5.24999H18.0625ZM17.8515 19.3125C17.8984 19.3125 17.9453 19.289 17.9922 19.2421C18.039 19.1953 18.0625 19.1484 18.0625 19.1015V8.62499H5.6875V19.1015C5.6875 19.1484 5.71093 19.1953 5.75781 19.2421C5.80468 19.289 5.85156 19.3125 5.89843 19.3125H17.8515Z" fill="#005AFF"/>
<mask id="mask0_43_3184" style="mask-type:luminance" maskUnits="userSpaceOnUse" x="4" y="3" width="16" height="18">
<path fill-rule="evenodd" clip-rule="evenodd" d="M18.0625 5.24999C18.5312 5.24999 18.9297 5.41406 19.2578 5.74218C19.5859 6.07031 19.75 6.46874 19.75 6.93749V19.3125C19.75 19.7812 19.5859 20.1796 19.2578 20.5078C18.9297 20.8359 18.5312 21 18.0625 21H5.6875C5.21875 21 4.82031 20.8359 4.49219 20.5078C4.16406 20.1796 4 19.7812 4 19.3125V6.93749C4 6.46874 4.16406 6.07031 4.49219 5.74218C4.82031 5.41406 5.21875 5.24999 5.6875 5.24999H7.37499V3.42187C7.37499 3.30469 7.41601 3.20508 7.49804 3.12305C7.58007 3.04102 7.67968 3 7.79687 3H9.20311C9.3203 3 9.41991 3.04102 9.50194 3.12305C9.58397 3.20508 9.62499 3.30469 9.62499 3.42187V5.24999H14.125V3.42187C14.125 3.30469 14.166 3.20508 14.248 3.12305C14.3301 3.04102 14.4297 3 14.5469 3H15.9531C16.0703 3 16.1699 3.04102 16.2519 3.12305C16.334 3.20508 16.375 3.30469 16.375 3.42187V5.24999H18.0625ZM17.8515 19.3125C17.8984 19.3125 17.9453 19.289 17.9922 19.2421C18.039 19.1953 18.0625 19.1484 18.0625 19.1015V8.62499H5.6875V19.1015C5.6875 19.1484 5.71093 19.1953 5.75781 19.2421C5.80468 19.289 5.85156 19.3125 5.89843 19.3125H17.8515Z" fill="white"/>
</mask>
<g mask="url(#mask0_43_3184)">
</g>
</svg>
